<?xml version="1.0" encoding="UTF-8" standalone="no"?>
<!-- Created with Inkscape (http://www.inkscape.org/) -->

<svg
   width="18"
   height="18"
   version="1.1"
   viewBox="0 0 4.7625 4.7625"
   id="svg831"
   sodipodi:docname="eggtimer-on-symbolic.svg"
   inkscape:version="1.1.2 (0a00cf5339, 2022-02-04)"
   inkscape:export-filename="/home/nox/Projects/Code/Apps/linux.egg-timer/dist/icons/eggtimer-off-symbolic.png"
   inkscape:export-xdpi="2730.6667"
   inkscape:export-ydpi="2730.6667"
   xmlns:inkscape="http://www.inkscape.org/namespaces/inkscape"
   xmlns:sodipodi="http://sodipodi.sourceforge.net/DTD/sodipodi-0.dtd"
   xmlns="http://www.w3.org/2000/svg"
   xmlns:svg="http://www.w3.org/2000/svg">
  <defs
     id="defs835">
    <inkscape:path-effect
       effect="bspline"
       id="path-effect1871"
       is_visible="true"
       lpeversion="1"
       weight="33.333333"
       steps="2"
       helper_size="0"
       apply_no_weight="true"
       apply_with_weight="true"
       only_selected="false" />
  </defs>
  <sodipodi:namedview
     id="namedview833"
     pagecolor="#505050"
     bordercolor="#eeeeee"
     borderopacity="1"
     inkscape:pageshadow="0"
     inkscape:pageopacity="0"
     inkscape:pagecheckerboard="0"
     showgrid="false"
     inkscape:zoom="28.244988"
     inkscape:cx="2.4783158"
     inkscape:cy="11.488764"
     inkscape:window-width="1920"
     inkscape:window-height="1012"
     inkscape:window-x="0"
     inkscape:window-y="434"
     inkscape:window-maximized="1"
     inkscape:current-layer="g2807" />
  <g
     inkscape:groupmode="layer"
     id="g2807"
     inkscape:label="timer-on"
     style="display:inline">
    <path
       id="path2801"
       style="color:#000000;fill:#7f7f7f;fill-opacity:1;stroke-width:0.999999;-inkscape-stroke:none"
       d="m 2.3806253,0.02459191 c -0.2822909,0 -0.5399244,0.13213728 -0.7625704,0.32837686 C 1.3954088,0.54920835 1.2026981,0.81197547 1.0418139,1.1028872 0.72004534,1.6847107 0.52250687,2.3724954 0.52250687,2.8850937 c 0,1.0251962 0.83292213,1.8604187 1.85811843,1.8604187 1.0251962,0 1.8609938,-0.8352225 1.8609938,-1.8604187 0,-0.5125983 -0.2004138,-1.200383 -0.5221823,-1.7822065 C 3.5585524,0.81197547 3.3687171,0.54920835 3.1460711,0.35296877 2.9234251,0.15672919 2.6629161,0.02459191 2.3806253,0.02459191 Z m 0,1.65856199 c 0.6631233,0 1.2042403,0.5388166 1.2042403,1.2019398 0,0.6631233 -0.541117,1.2042403 -1.2042403,1.2042403 -0.6631232,-3e-7 -1.2042402,-0.541117 -1.2042402,-1.2042403 0,-0.6631232 0.541117,-1.2019398 1.2042402,-1.2019398 z m 0,0.2932963 c -0.5039928,-10e-8 -0.9086435,0.4046506 -0.9086435,0.9086435 0,0.5039929 0.4046507,0.9109439 0.9086435,0.9109439 0.5039929,0 0.9109439,-0.406951 0.9109439,-0.9109439 -3e-7,-0.5039929 -0.406951,-0.9086435 -0.9109439,-0.9086435 z M 2.3696987,2.1305745 A 0.14722306,0.14722306 0 0 1 2.5157718,2.278948 V 2.8413867 L 2.8982069,3.0892509 A 0.14722306,0.14722306 0 0 1 2.9436391,3.2916828 0.14722306,0.14722306 0 0 1 2.739482,3.337115 L 2.220175,3.0024121 2.2219003,2.2766476 A 0.14722306,0.14722306 0 0 1 2.3696987,2.1305745 Z" />
  </g>
</svg>
